# Blender 4.3.2
# www.blender.org
mtllib psx-fridge.mtl
o Cube
v -0.552374 -1.000000 0.453229
v -0.552374 1.000000 0.453229
v -0.552374 -1.000000 -0.453229
v -0.552374 1.000000 -0.453229
v 0.552374 -1.000000 0.453229
v 0.552374 1.000000 0.453229
v 0.552374 -1.000000 -0.453229
v 0.552374 1.000000 -0.453229
v -0.336339 0.916671 0.475262
v -0.238108 0.915396 0.475262
v -0.140470 0.914380 0.475262
v -0.039148 0.908405 0.475262
v 0.023010 0.904600 0.475262
v 0.028780 0.847800 0.475262
v -0.043768 0.849216 0.475262
v -0.097923 0.846499 0.475262
v -0.160471 0.847107 0.475262
v -0.268307 0.850667 0.475262
v -0.347160 0.851149 0.475262
v -0.388782 0.866049 0.475262
v -0.390257 0.891409 0.475262
v -0.391572 0.917330 0.475262
v -0.552374 -1.000000 0.453229
v -0.552374 1.000000 0.453229
v 0.552374 1.000000 0.453229
v 0.552374 -1.000000 0.453229
v -0.391572 0.917330 0.453229
v -0.390257 0.891409 0.453229
v -0.388782 0.866049 0.453229
v -0.347160 0.851149 0.453229
v -0.268307 0.850667 0.453229
v -0.160471 0.847107 0.453229
v -0.097923 0.846499 0.453229
v -0.043768 0.849216 0.453229
v 0.028780 0.847800 0.453229
v 0.023010 0.904600 0.453229
v -0.039148 0.908405 0.453229
v -0.140470 0.914380 0.453229
v -0.238108 0.915396 0.453229
v -0.336339 0.916671 0.453229
v -0.140470 0.914380 0.509492
v -0.238108 0.915396 0.509492
v -0.039148 0.908405 0.509492
v 0.023010 0.904600 0.509492
v 0.028780 0.847800 0.509492
v -0.043768 0.849216 0.509492
v -0.097923 0.846499 0.509492
v -0.160471 0.847107 0.509492
v -0.268307 0.850667 0.509492
v -0.347160 0.851149 0.509492
v -0.388782 0.866049 0.509492
v -0.390257 0.891409 0.509492
v -0.391572 0.917330 0.509492
v -0.336339 0.916671 0.509492
vn -1.0000 -0.0000 -0.0000
vn -0.0000 -0.0000 -1.0000
vn 1.0000 -0.0000 -0.0000
vn -0.0000 1.0000 -0.0000
vn -0.0000 -1.0000 -0.0000
vn -0.0000 -0.0000 1.0000
vn 0.0130 0.9999 -0.0000
vn 0.0501 -0.9987 -0.0000
vn -0.0097 -1.0000 -0.0000
vn 0.0119 0.9999 -0.0000
vn -0.0195 -0.9998 -0.0000
vn -0.9987 -0.0506 -0.0000
vn 0.9949 0.1011 -0.0000
vn -0.9983 -0.0581 -0.0000
vn 0.0611 0.9981 -0.0000
vn -0.3370 -0.9415 -0.0000
vn 0.0589 0.9983 -0.0000
vn -0.0061 -1.0000 -0.0000
vn 0.0104 0.9999 -0.0000
vn -0.0330 -0.9995 -0.0000
vt 0.000000 0.238095
vt 0.000000 0.000000
vt 0.384615 0.000000
vt 0.384615 0.238095
vt 0.000000 0.619048
vt 0.000000 0.380952
vt 0.384615 0.380952
vt 0.384615 0.619048
vt 1.000000 0.238095
vt 0.615385 0.238095
vt 0.615385 0.000000
vt 1.000000 0.000000
vt 0.384615 1.000000
vt 0.000000 1.000000
vt 0.000000 0.761905
vt 0.384615 0.761905
vt 1.000000 1.000000
vt 0.615385 1.000000
vt 0.615385 0.761905
vt 1.000000 0.761905
vt 1.000000 0.619048
vt 0.615385 0.619048
vt 0.644654 0.506203
vt 0.644381 0.490567
vt 0.644904 0.478896
vt 0.644787 0.465415
vt 0.644103 0.442174
vt 0.644010 0.425180
vt 0.641144 0.416210
vt 0.636267 0.415892
vt 0.631283 0.415609
vt 0.615385 0.380952
vt 1.000000 0.380952
vt 0.631409 0.427512
vt 0.631655 0.448683
vt 0.631850 0.469726
vt 0.632999 0.491563
vt 0.633731 0.504959
s 0
usemtl Material.001
f 1/1/1 2/2/1 4/3/1 3/4/1
f 3/5/2 4/6/2 8/7/2 7/8/2
f 7/9/3 8/10/3 6/11/3 5/12/3
f 5/12/4 6/11/4 25/11/4 26/12/4
f 3/13/5 7/14/5 5/15/5 1/16/5
f 8/17/4 4/18/4 2/19/4 6/20/4
f 26/21/6 25/22/6 35/23/6 34/24/6 33/25/6 32/26/6 31/27/6 30/28/6 29/29/6 28/30/6 27/31/6 24/32/6 23/33/6
f 6/20/4 2/19/4 24/19/4 25/20/4
f 1/16/4 5/15/4 26/15/4 23/16/4
f 24/32/6 27/31/6 40/34/6 39/35/6 38/36/6 37/37/6 36/38/6 35/23/6 25/22/6
f 39/35/7 40/34/7 9/34/7 10/35/7
f 2/2/4 1/1/4 23/1/4 24/2/4
f 16/25/8 15/24/8 46/24/8 47/25/8
f 32/26/9 33/25/9 16/25/9 17/26/9
f 40/34/10 27/31/10 22/31/10 9/34/10
f 33/25/8 34/24/8 15/24/8 16/25/8
f 34/24/11 35/23/11 14/23/11 15/24/11
f 27/31/12 28/30/12 21/30/12 22/31/12
f 35/23/13 36/38/13 13/38/13 14/23/13
f 28/30/14 29/29/14 20/29/14 21/30/14
f 36/38/15 37/37/15 12/37/15 13/38/15
f 29/29/16 30/28/16 19/28/16 20/29/16
f 37/37/17 38/36/17 11/36/17 12/37/17
f 30/28/18 31/27/18 18/27/18 19/28/18
f 38/36/19 39/35/19 10/35/19 11/36/19
f 31/27/20 32/26/20 17/26/20 18/27/20
f 44/38/6 43/37/6 41/36/6 42/35/6 54/34/6 53/31/6 52/30/6 51/29/6 50/28/6 49/27/6 48/26/6 47/25/6 46/24/6 45/23/6
f 17/26/9 16/25/9 47/25/9 48/26/9
f 10/35/7 9/34/7 54/34/7 42/35/7
f 18/27/20 17/26/20 48/26/20 49/27/20
f 9/34/10 22/31/10 53/31/10 54/34/10
f 11/36/19 10/35/19 42/35/19 41/36/19
f 19/28/18 18/27/18 49/27/18 50/28/18
f 12/37/17 11/36/17 41/36/17 43/37/17
f 20/29/16 19/28/16 50/28/16 51/29/16
f 13/38/15 12/37/15 43/37/15 44/38/15
f 21/30/14 20/29/14 51/29/14 52/30/14
f 14/23/13 13/38/13 44/38/13 45/23/13
f 22/31/12 21/30/12 52/30/12 53/31/12
f 15/24/11 14/23/11 45/23/11 46/24/11
o Cube.002
v -0.559447 1.052961 0.465602
v -0.559447 1.754654 0.465602
v -0.559447 1.052961 -0.465602
v -0.559447 1.754654 -0.465602
v 0.559447 1.052961 0.465602
v 0.559447 1.754654 0.465602
v 0.559447 1.052961 -0.465602
v 0.559447 1.754654 -0.465602
v -0.381931 1.175153 0.465602
v -0.404403 1.176535 0.465602
v -0.410390 1.157342 0.465602
v -0.412295 1.136477 0.465602
v -0.405476 1.116932 0.465602
v -0.355528 1.114118 0.465602
v -0.257925 1.117563 0.465602
v -0.140742 1.116552 0.465602
v -0.052228 1.115419 0.465602
v 0.028999 1.118787 0.465602
v 0.025176 1.164960 0.465602
v -0.036790 1.166186 0.465602
v -0.177599 1.171528 0.465602
v -0.381931 1.175153 0.519895
v -0.404403 1.176535 0.519895
v -0.410390 1.157342 0.519895
v -0.412295 1.136477 0.519895
v -0.405476 1.116932 0.519895
v -0.355528 1.114118 0.519895
v -0.257925 1.117563 0.519895
v -0.140742 1.116552 0.519895
v -0.052228 1.115419 0.519895
v 0.028999 1.118787 0.519895
v 0.025176 1.164960 0.519895
v -0.036790 1.166186 0.519895
v -0.177599 1.171528 0.519895
vn -1.0000 -0.0000 -0.0000
vn -0.0000 -0.0000 -1.0000
vn 1.0000 -0.0000 -0.0000
vn -0.0000 -0.0000 1.0000
vn -0.0000 -1.0000 -0.0000
vn -0.0000 1.0000 -0.0000
vn -0.9546 0.2978 -0.0000
vn 0.9966 0.0825 -0.0000
vn -0.9959 0.0909 -0.0000
vn 0.0198 0.9998 -0.0000
vn -0.9442 -0.3294 -0.0000
vn 0.0379 0.9993 -0.0000
vn -0.0563 -0.9984 -0.0000
vn 0.0177 0.9998 -0.0000
vn 0.0353 -0.9994 -0.0000
vn -0.0086 -1.0000 -0.0000
vn -0.0128 -0.9999 -0.0000
vn 0.0614 0.9981 -0.0000
vn 0.0414 -0.9991 -0.0000
vt 0.062500 0.270833
vt 0.062500 0.062500
vt 0.270833 0.062500
vt 0.270833 0.270833
vt 0.062500 0.604167
vt 0.062500 0.395833
vt 0.270833 0.395833
vt 0.270833 0.604167
vt 0.604167 0.270833
vt 0.395833 0.270833
vt 0.395833 0.062500
vt 0.604167 0.062500
vt 0.604167 0.604167
vt 0.584623 0.505399
vt 0.585623 0.490275
vt 0.585286 0.473794
vt 0.584986 0.451975
vt 0.586009 0.433802
vt 0.585173 0.424502
vt 0.579371 0.423232
vt 0.604167 0.395833
vt 0.270833 0.937500
vt 0.062500 0.937500
vt 0.062500 0.729167
vt 0.270833 0.729167
vt 0.604167 0.937500
vt 0.395833 0.937500
vt 0.395833 0.729167
vt 0.604167 0.729167
vt 0.570914 0.504688
vt 0.570550 0.493150
vt 0.568964 0.466932
vt 0.567888 0.428886
vt 0.567477 0.424702
vt 0.573176 0.423587
vt 0.395833 0.604167
vt 0.395833 0.395833
s 0
usemtl Material.002
f 55/39/21 56/40/21 58/41/21 57/42/21
f 57/43/22 58/44/22 62/45/22 61/46/22
f 61/47/23 62/48/23 60/49/23 59/50/23
f 59/51/24 72/52/24 71/53/24 70/54/24 69/55/24 68/56/24 67/57/24 66/58/24 55/59/24
f 57/60/25 61/61/25 59/62/25 55/63/25
f 62/64/26 58/65/26 56/66/26 60/67/26
f 86/68/24 87/69/24 88/70/24 76/71/24 77/72/24 78/73/24 79/58/24 80/57/24 81/56/24 82/55/24 83/54/24 84/53/24 85/52/24
f 55/59/24 66/58/24 65/73/24 64/72/24 63/71/24 75/70/24 74/69/24 73/68/24 72/52/24 59/51/24 60/74/24 56/75/24
f 64/72/27 65/73/27 78/73/27 77/72/27
f 72/52/28 73/68/28 86/68/28 85/52/28
f 65/73/29 66/58/29 79/58/29 78/73/29
f 73/68/30 74/69/30 87/69/30 86/68/30
f 66/58/31 67/57/31 80/57/31 79/58/31
f 74/69/32 75/70/32 88/70/32 87/69/32
f 67/57/33 68/56/33 81/56/33 80/57/33
f 75/70/34 63/71/34 76/71/34 88/70/34
f 68/56/35 69/55/35 82/55/35 81/56/35
f 69/55/36 70/54/36 83/54/36 82/55/36
f 70/54/37 71/53/37 84/53/37 83/54/37
f 63/71/38 64/72/38 77/72/38 76/71/38
f 71/53/39 72/52/39 85/52/39 84/53/39
o Cube.001
v -0.500715 0.989770 0.415398
v -0.500715 1.049558 0.415398
v -0.500715 0.989770 -0.409115
v -0.500715 1.049558 -0.409115
v 0.505906 0.989770 0.415398
v 0.505906 1.049558 0.415398
v 0.505906 0.989770 -0.409115
v 0.505906 1.049558 -0.409115
vn -1.0000 -0.0000 -0.0000
vn -0.0000 -0.0000 -1.0000
vn 1.0000 -0.0000 -0.0000
vn -0.0000 -0.0000 1.0000
vn -0.0000 -1.0000 -0.0000
vn -0.0000 1.0000 -0.0000
vt 0.062500 0.270833
vt 0.062500 0.062500
vt 0.270833 0.062500
vt 0.270833 0.270833
vt 0.062500 0.604167
vt 0.062500 0.395833
vt 0.270833 0.395833
vt 0.270833 0.604167
vt 0.604167 0.270833
vt 0.395833 0.270833
vt 0.395833 0.062500
vt 0.604167 0.062500
vt 0.604167 0.604167
vt 0.395833 0.604167
vt 0.395833 0.395833
vt 0.604167 0.395833
vt 0.270833 0.937500
vt 0.062500 0.937500
vt 0.062500 0.729167
vt 0.270833 0.729167
vt 0.604167 0.937500
vt 0.395833 0.937500
vt 0.395833 0.729167
vt 0.604167 0.729167
s 0
usemtl Material.003
f 89/76/40 90/77/40 92/78/40 91/79/40
f 91/80/41 92/81/41 96/82/41 95/83/41
f 95/84/42 96/85/42 94/86/42 93/87/42
f 93/88/43 94/89/43 90/90/43 89/91/43
f 91/92/44 95/93/44 93/94/44 89/95/44
f 96/96/45 92/97/45 90/98/45 94/99/45
